<svg width="32" height="32" viewBox="0 0 32 32" fill="none" xmlns="http://www.w3.org/2000/svg">
<mask id="mask0_1529_2899" style="mask-type:alpha" maskUnits="userSpaceOnUse" x="0" y="0" width="32" height="32">
<rect width="32" height="32" fill="#D9D9D9"/>
</mask>
<g mask="url(#mask0_1529_2899)">
<path d="M7.07684 28.6667C6.40328 28.6667 5.83317 28.4334 5.3665 27.9667C4.89984 27.5 4.6665 26.9299 4.6665 26.2564V8.41035C4.6665 7.7368 4.89984 7.16669 5.3665 6.70002C5.83317 6.23335 6.40328 6.00002 7.07684 6.00002H8.92284V4.20502C8.92284 3.9128 9.02073 3.6688 9.2165 3.47302C9.41228 3.27746 9.65628 3.17969 9.9485 3.17969C10.2409 3.17969 10.4849 3.27746 10.6805 3.47302C10.8763 3.6688 10.9742 3.9128 10.9742 4.20502V6.00002H21.0768V4.17969C21.0768 3.89591 21.1725 3.65824 21.3638 3.46669C21.5554 3.27535 21.7931 3.17969 22.0768 3.17969C22.3606 3.17969 22.5982 3.27535 22.7895 3.46669C22.9811 3.65824 23.0768 3.89591 23.0768 4.17969V6.00002H24.9228C25.5964 6.00002 26.1665 6.23335 26.6332 6.70002C27.0998 7.16669 27.3332 7.7368 27.3332 8.41035V26.2564C27.3332 26.9299 27.0998 27.5 26.6332 27.9667C26.1665 28.4334 25.5964 28.6667 24.9228 28.6667H7.07684ZM7.07684 26.6667H24.9228C25.0255 26.6667 25.1195 26.6239 25.2048 26.5384C25.2904 26.453 25.3332 26.359 25.3332 26.2564V13.7437H6.6665V26.2564C6.6665 26.359 6.70928 26.453 6.79484 26.5384C6.88017 26.6239 6.97417 26.6667 7.07684 26.6667ZM6.6665 11.7437H25.3332V8.41035C25.3332 8.30769 25.2904 8.21369 25.2048 8.12835C25.1195 8.0428 25.0255 8.00002 24.9228 8.00002H7.07684C6.97417 8.00002 6.88017 8.0428 6.79484 8.12835C6.70928 8.21369 6.6665 8.30769 6.6665 8.41035V11.7437ZM15.9998 18.7694C15.6734 18.7694 15.3952 18.6544 15.1652 18.4244C14.9354 18.1946 14.8205 17.9164 14.8205 17.5897C14.8205 17.2632 14.9354 16.985 15.1652 16.755C15.3952 16.5252 15.6734 16.4104 15.9998 16.4104C16.3263 16.4104 16.6045 16.5252 16.8345 16.755C17.0643 16.985 17.1792 17.2632 17.1792 17.5897C17.1792 17.9164 17.0643 18.1946 16.8345 18.4244C16.6045 18.6544 16.3263 18.7694 15.9998 18.7694ZM10.6665 18.7694C10.3401 18.7694 10.0618 18.6544 9.83184 18.4244C9.60206 18.1946 9.48717 17.9164 9.48717 17.5897C9.48717 17.2632 9.60206 16.985 9.83184 16.755C10.0618 16.5252 10.3401 16.4104 10.6665 16.4104C10.9929 16.4104 11.2712 16.5252 11.5012 16.755C11.7309 16.985 11.8458 17.2632 11.8458 17.5897C11.8458 17.9164 11.7309 18.1946 11.5012 18.4244C11.2712 18.6544 10.9929 18.7694 10.6665 18.7694ZM21.3332 18.7694C21.0067 18.7694 20.7285 18.6544 20.4985 18.4244C20.2687 18.1946 20.1538 17.9164 20.1538 17.5897C20.1538 17.2632 20.2687 16.985 20.4985 16.755C20.7285 16.5252 21.0067 16.4104 21.3332 16.4104C21.6596 16.4104 21.9378 16.5252 22.1678 16.755C22.3976 16.985 22.5125 17.2632 22.5125 17.5897C22.5125 17.9164 22.3976 18.1946 22.1678 18.4244C21.9378 18.6544 21.6596 18.7694 21.3332 18.7694ZM15.9998 24C15.6734 24 15.3952 23.885 15.1652 23.655C14.9354 23.4252 14.8205 23.1471 14.8205 22.8207C14.8205 22.494 14.9354 22.2158 15.1652 21.986C15.3952 21.756 15.6734 21.641 15.9998 21.641C16.3263 21.641 16.6045 21.756 16.8345 21.986C17.0643 22.2158 17.1792 22.494 17.1792 22.8207C17.1792 23.1471 17.0643 23.4252 16.8345 23.655C16.6045 23.885 16.3263 24 15.9998 24ZM10.6665 24C10.3401 24 10.0618 23.885 9.83184 23.655C9.60206 23.4252 9.48717 23.1471 9.48717 22.8207C9.48717 22.494 9.60206 22.2158 9.83184 21.986C10.0618 21.756 10.3401 21.641 10.6665 21.641C10.9929 21.641 11.2712 21.756 11.5012 21.986C11.7309 22.2158 11.8458 22.494 11.8458 22.8207C11.8458 23.1471 11.7309 23.4252 11.5012 23.655C11.2712 23.885 10.9929 24 10.6665 24ZM21.3332 24C21.0067 24 20.7285 23.885 20.4985 23.655C20.2687 23.4252 20.1538 23.1471 20.1538 22.8207C20.1538 22.494 20.2687 22.2158 20.4985 21.986C20.7285 21.756 21.0067 21.641 21.3332 21.641C21.6596 21.641 21.9378 21.756 22.1678 21.986C22.3976 22.2158 22.5125 22.494 22.5125 22.8207C22.5125 23.1471 22.3976 23.4252 22.1678 23.655C21.9378 23.885 21.6596 24 21.3332 24Z" fill="black"/>
</g>
</svg>
