<svg width="32" height="32" viewBox="0 0 32 32" fill="none" xmlns="http://www.w3.org/2000/svg">
<mask id="mask0_1462_3142" style="mask-type:alpha" maskUnits="userSpaceOnUse" x="0" y="0" width="32" height="32">
<rect width="32" height="32" fill="#D9D9D9"/>
</mask>
<g mask="url(#mask0_1462_3142)">
<path d="M11.2561 26.5385C9.24078 25.8051 7.48489 24.6984 5.98844 23.2181C4.49178 21.7377 3.64511 19.9557 3.44844 17.8721C3.42289 17.5455 3.51656 17.2629 3.72944 17.0245C3.94211 16.786 4.21178 16.6668 4.53844 16.6668H5.99978V6.91813C5.99978 6.61902 6.10022 6.3579 6.30111 6.13479C6.502 5.91168 6.752 5.78224 7.05111 5.74646L27.7844 3.44113C28.0356 3.40535 28.2453 3.46824 28.4138 3.62979C28.5822 3.79135 28.6664 3.99768 28.6664 4.24879C28.6664 4.44191 28.5947 4.61368 28.4511 4.76413C28.3076 4.91457 28.1391 5.00091 27.9458 5.02313L13.9484 6.57979V9.11546H27.8715C28.1006 9.11546 28.2903 9.19068 28.4408 9.34113C28.5912 9.49157 28.6664 9.68135 28.6664 9.91046C28.6664 10.1396 28.5912 10.3292 28.4408 10.4795C28.2903 10.6299 28.1006 10.7051 27.8715 10.7051H13.9484V16.6668H27.4611C27.7878 16.6668 28.0597 16.786 28.2768 17.0245C28.4939 17.2629 28.5896 17.5455 28.5638 17.8721C28.3671 19.9644 27.5184 21.7528 26.0178 23.2375C24.5169 24.7219 22.7502 25.8222 20.7178 26.5385V27.4615C20.7178 27.8052 20.6028 28.092 20.3728 28.3218C20.1428 28.5518 19.856 28.6668 19.5124 28.6668H12.4614C12.1179 28.6668 11.8311 28.5518 11.6011 28.3218C11.3711 28.092 11.2561 27.8052 11.2561 27.4615V26.5385ZM10.7691 9.11546H12.3588V6.76179L10.7691 6.93346V9.11546ZM7.58944 9.11546H9.17945V7.11546L7.58944 7.27446V9.11546ZM10.7691 16.6668H12.3588V10.7051H10.7691V16.6668ZM7.58944 16.6668H9.17945V10.7051H7.58944V16.6668ZM13.2561 26.6668H18.7178V25.1745L19.9228 24.7131C21.381 24.2138 22.675 23.4471 23.8048 22.4131C24.9348 21.3789 25.7502 20.1301 26.2511 18.6668H5.74844C6.24089 20.1301 7.052 21.3822 8.18178 22.4231C9.31178 23.4642 10.6016 24.2276 12.0511 24.7131L13.2561 25.1745V26.6668Z" fill="black"/>
</g>
</svg>
